<?xml version="1.0" encoding="utf-8"?>
<!-- Generator: Adobe Illustrator 25.4.1, SVG Export Plug-In . SVG Version: 6.00 Build 0)  -->
<svg version="1.1" id="Layer_1" xmlns="http://www.w3.org/2000/svg" xmlns:xlink="http://www.w3.org/1999/xlink" x="0px" y="0px"
	 viewBox="0 0 461.29 136.6" style="enable-background:new 0 0 461.29 136.6;" xml:space="preserve">
<style type="text/css">
	.st0{display:none;fill-rule:evenodd;clip-rule:evenodd;fill:#C64037;}
	.st1{fill-rule:evenodd;clip-rule:evenodd;fill:#FFFFFF;}
</style>
<rect class="st0" width="461.29" height="136.6"/>
<g>
	<path class="st1" d="M102.08,41.81c8.57,10.27,13.23,23.14,13.23,36.56c0,15.2-5.99,29.65-16.73,40.4
		c-10.75,10.75-25.2,16.73-40.4,16.73c-15.2,0-29.65-5.99-40.4-16.73C7.03,108.03,1.04,93.58,1.04,78.38
		c0-13.29,4.57-26.03,12.98-36.26c-0.34-0.86-0.65-1.72-0.92-2.6c-1.05-3.31-1.88-7.28-1.7-10.75c0.02-0.44,0.06-0.87,0.13-1.31
		c0.33-3.04,1.45-6.12,3.57-8.37c2.27-2.41,5.28-3.51,8.59-3.19c1.9,0.19,3.84,0.58,5.69,1.09c0.58,0.16,1.15,0.33,1.72,0.52
		c5.39-4.29,11.8-6.81,18.62-7.89c0.49-0.12,0.92-0.38,1.25-0.76c0.4-0.45,0.63-1.02,0.65-1.62c0.03-0.85,0.34-1.66,0.89-2.31
		c1.34-1.58,3.72-1.77,5.29-0.41c0.62,0.54,1.17,1.15,1.64,1.82c0.11-0.35,0.18-0.71,0.19-1.08c0.03-0.89,0.36-1.74,0.93-2.42
		c1.41-1.66,3.9-1.86,5.55-0.44c1.16,1,2.11,2.23,2.78,3.6c0.67,1.35,1.07,2.83,1.18,4.33c5.45,1.31,10.55,3.63,14.96,7.13
		c0.52-0.17,1.05-0.33,1.58-0.47c1.85-0.51,3.78-0.9,5.69-1.09c3.31-0.33,6.32,0.77,8.59,3.19c2.12,2.25,3.23,5.33,3.57,8.37
		c0.07,0.43,0.11,0.87,0.13,1.31c0.17,3.47-0.66,7.44-1.7,10.75C102.64,40.29,102.37,41.06,102.08,41.81L102.08,41.81z M17.47,42.65
		C9.09,52.18,4.01,64.69,4.01,78.38c0,14.96,6.06,28.5,15.87,38.3c9.8,9.8,23.35,15.86,38.3,15.86c14.95,0,28.5-6.06,38.3-15.86
		c9.8-9.8,15.87-23.34,15.87-38.3c0-13.82-5.18-26.44-13.7-36.01c0.52-1.16,1-2.43,1.41-3.73c1.05-3.31,1.7-6.95,1.57-9.71
		c-0.02-0.37-0.05-0.73-0.11-1.06c-0.27-2.61-1.21-5.05-2.79-6.73c-1.51-1.61-3.56-2.52-6.14-2.27c-1.66,0.16-3.5,0.53-5.19,1
		c-1.06,0.29-2.07,0.63-2.95,0.98c-4.53-3.98-10.34-6.82-17.42-8.11c0.12-0.68,0.16-1.39,0.11-2.11c-0.08-1.18-0.39-2.29-0.89-3.28
		c-0.51-1.03-1.22-1.94-2.07-2.68c-0.4-0.35-1.01-0.3-1.36,0.11c-0.15,0.18-0.23,0.39-0.24,0.61c-0.05,1.65-0.7,3.17-1.74,4.34
		c-0.7,0.79-1.59,1.42-2.6,1.8c-0.07-0.93-0.32-1.8-0.71-2.59c-0.41-0.83-0.98-1.56-1.67-2.15c-0.32-0.28-0.81-0.24-1.09,0.09
		c-0.12,0.14-0.18,0.32-0.19,0.49c-0.04,1.33-0.56,2.55-1.4,3.49c-0.75,0.84-1.76,1.45-2.91,1.69c-7.62,1.19-13.81,4.14-18.58,8.35
		c-0.92-0.38-1.98-0.73-3.1-1.04c-1.69-0.46-3.53-0.83-5.19-0.99c-2.58-0.25-4.63,0.66-6.14,2.27c-1.58,1.68-2.51,4.13-2.79,6.73
		c-0.05,0.34-0.09,0.69-0.11,1.07c-0.14,2.76,0.52,6.39,1.57,9.71C16.37,40.04,16.9,41.41,17.47,42.65L17.47,42.65z M46.45,64.32
		c1.14,1.69,2.63,3.12,4.36,4.19c2.15,1.32,4.67,2.07,7.36,2.07c2.69,0,5.21-0.76,7.36-2.07c1.74-1.07,3.23-2.5,4.36-4.19
		c1.29,0.53,2.67,0.76,4.03,0.7c0.9-0.04,1.78-0.2,2.63-0.47c3.83,6.39,3.51,16.6,1.23,22.81c2.81-7.09,3.91-16.71,0.26-23.43
		l0.29-0.16c0.83-0.47,1.6-1.07,2.26-1.78c3.35,4.77,4.43,12.18,3.65,17.14c1.07-5.84,0.57-13.24-2.81-18.19
		c0.09-0.14,0.19-0.28,0.27-0.43c0.49-0.82,0.86-1.74,1.08-2.76c4.47,4.11,7.24,11.39,7.56,16.61c-0.23-6.36-2.53-14.02-7.35-18.24
		c0.01-0.31,0.01-0.62,0-0.93c-0.16-3.79-2.44-7.45-5.42-10.28c-2.47-2.34-5.48-4.14-8.16-4.97c-0.52-1.51-1.77-2.73-3.43-3.16
		c-1.29-0.34-2.62-0.6-4-0.78c-1.42-0.18-2.77-0.28-4.03-0.28c-1.26,0-2.61,0.09-4.03,0.28c-1.37,0.18-2.71,0.44-4,0.78
		c-1.72,0.45-3,1.75-3.49,3.33c-2.55,0.89-5.33,2.61-7.65,4.8c-2.98,2.82-5.27,6.48-5.42,10.28c-0.01,0.19-0.01,0.37-0.01,0.56
		c-5.13,4.13-7.56,12.06-7.8,18.61C25.88,69,28.8,61.44,33.5,57.41c0.2,1.15,0.6,2.19,1.14,3.1l0.05,0.09
		c-3.6,4.95-4.15,12.56-3.05,18.53c-0.8-5.06,0.34-12.67,3.85-17.42c0.7,0.83,1.53,1.51,2.45,2.03c-3.78,6.73-2.69,16.46,0.15,23.62
		c-2.3-6.25-2.6-16.56,1.31-22.94c0.96,0.35,1.98,0.56,3.01,0.6C43.78,65.08,45.16,64.86,46.45,64.32L46.45,64.32z M79.44,53.9
		c-0.56-2.34-2.18-4.64-4.19-6.55c-1.86-1.76-4-3.15-5.94-3.92c-0.92,2.26-3.39,3.55-5.82,2.92c-0.93-0.24-1.85-0.42-2.76-0.54
		c-0.35-0.05-0.72-0.08-1.11-0.11v3.64c0,0.93-0.76,1.68-1.68,1.68c-0.93,0-1.68-0.76-1.68-1.68v-3.64
		c-0.39,0.03-0.76,0.06-1.11,0.11c-0.9,0.12-1.82,0.3-2.75,0.54c-2.37,0.62-4.78-0.6-5.75-2.76c-1.83,0.79-3.81,2.11-5.55,3.75
		c-1.95,1.85-3.54,4.07-4.13,6.35c0.71-0.26,1.45-0.45,2.22-0.58c1.28-0.21,1.51,1.34,0.23,1.55c-0.94,0.1-1.85,0.35-2.71,0.71
		c-0.03,1,0.13,1.89,0.44,2.67c0.84-0.66,1.79-1.21,2.84-1.63c1.15-0.46,1.69,0.95,0.54,1.4c-0.98,0.33-1.87,0.83-2.69,1.45
		c0.49,0.65,1.11,1.18,1.81,1.57c0.09,0.05,0.18,0.1,0.28,0.15c0.78-0.85,1.67-1.61,2.7-2.27c1.25-0.81,2.21,0.71,0.96,1.52
		c-0.67,0.38-1.28,0.83-1.84,1.34c0.27,0.05,0.54,0.08,0.81,0.09c1.07,0.04,2.16-0.18,3.14-0.69l6.68-3.78l0.01-0.01
		c0.93-0.52,1.87-0.91,2.84-1.17c0.97-0.26,1.95-0.4,2.95-0.4c1,0,1.98,0.14,2.95,0.4c0.97,0.27,1.92,0.66,2.84,1.17l0.01,0.01
		l6.69,3.78c0.97,0.51,2.06,0.73,3.13,0.69c0.14-0.01,0.27-0.02,0.41-0.03c-0.58-0.53-1.21-1-1.91-1.4
		c-1.25-0.81-0.28-2.33,0.96-1.52c1.08,0.7,2.02,1.52,2.83,2.42c0.21-0.09,0.41-0.19,0.6-0.3c0.62-0.35,1.17-0.8,1.63-1.35
		c-0.89-0.73-1.88-1.31-2.97-1.68c-1.15-0.46-0.61-1.86,0.54-1.4c1.2,0.48,2.25,1.12,3.18,1.9c0.37-0.78,0.58-1.69,0.57-2.73
		c-1-0.48-2.06-0.8-3.17-0.92c-1.28-0.21-1.04-1.76,0.23-1.55C77.68,53.28,78.59,53.54,79.44,53.9L79.44,53.9z M53.13,39.3
		c-0.62,0.08-1.07,0.65-0.99,1.27c0.08,0.62,0.65,1.06,1.27,0.99c0.72-0.09,1.48-0.17,2.27-0.23c0.74-0.05,1.49-0.08,2.26-0.08
		c0.77,0,1.52,0.03,2.26,0.08c0.79,0.06,1.55,0.14,2.27,0.23c0.62,0.08,1.19-0.36,1.27-0.99c0.08-0.62-0.36-1.19-0.99-1.27
		c-0.82-0.11-1.63-0.19-2.39-0.25c-0.82-0.06-1.63-0.09-2.42-0.09s-1.6,0.03-2.42,0.09C54.76,39.1,53.96,39.19,53.13,39.3
		L53.13,39.3z M77.34,32c-1,0-1.81,0.81-1.81,1.81c0,1,0.81,1.81,1.81,1.81c1,0,1.81-0.81,1.81-1.81C79.15,32.81,78.34,32,77.34,32
		L77.34,32z M36.88,32c-1,0-1.81,0.81-1.81,1.81c0,1,0.81,1.81,1.81,1.81c1,0,1.81-0.81,1.81-1.81C38.69,32.81,37.88,32,36.88,32
		L36.88,32z M37.95,29.73c-2.86,0-5.17,2.32-5.17,5.17c0,2.86,2.32,5.17,5.17,5.17c2.86,0,5.17-2.32,5.17-5.17
		C43.12,32.05,40.81,29.73,37.95,29.73L37.95,29.73z M78.41,29.73c-2.86,0-5.17,2.32-5.17,5.17c0,2.86,2.32,5.17,5.17,5.17
		c2.86,0,5.17-2.32,5.17-5.17C83.58,32.05,81.26,29.73,78.41,29.73L78.41,29.73z M52.57,65.65c1.63,1,3.55,1.57,5.61,1.57
		c2.06,0,3.98-0.57,5.61-1.57c1.23-0.76,2.3-1.75,3.14-2.92l-4.6-2.6l0,0c-0.71-0.4-1.4-0.69-2.08-0.87
		c-0.68-0.19-1.37-0.28-2.07-0.28c-0.7,0-1.39,0.09-2.07,0.28c-0.68,0.19-1.38,0.48-2.08,0.87l0,0l-4.6,2.6
		C50.26,63.9,51.33,64.89,52.57,65.65L52.57,65.65z M41.67,126.48c5.17,1.77,10.73,2.74,16.5,2.74c5.72,0,11.21-0.94,16.34-2.68
		v-24.91c0-5.5-1.36-9.53-4.06-12.14c-2.7-2.62-6.84-3.91-12.37-3.91s-9.67,1.29-12.37,3.91c-2.69,2.61-4.06,6.64-4.06,12.14V126.48
		L41.67,126.48z M77.88,125.26c6.12-2.57,11.62-6.31,16.24-10.93c1.24-1.24,2.42-2.55,3.53-3.91c-1.69-5.4-2.84-11.58-3.59-17.07
		c-0.77-5.72-1.1-11.66-1.1-18.15V49.82c0-10.02-3.16-19.03-9.5-25.3c-5.76-5.7-14.21-9.19-25.38-9.19s-19.61,3.49-25.38,9.19
		c-6.34,6.28-9.5,15.28-9.5,25.3v25.36c0,6.39-0.32,12.24-1.07,17.89c-0.73,5.53-1.89,11.79-3.57,17.2
		c1.14,1.42,2.36,2.77,3.65,4.06c4.58,4.58,10.03,8.29,16.08,10.86v-23.56c0-6.45,1.71-11.28,5.08-14.55
		c3.36-3.26,8.28-4.87,14.71-4.87c6.43,0,11.34,1.61,14.71,4.87c3.37,3.27,5.08,8.1,5.08,14.55V125.26L77.88,125.26z M95.54,41.09
		c0.47-1.05,0.92-2.23,1.3-3.47c0.95-2.99,1.54-6.19,1.42-8.53c-0.04-0.85-0.18-1.47-0.5-1.79c-0.31-0.31-0.94-0.46-1.98-0.41
		c-1.08,0.06-2.41,0.31-3.68,0.66c-0.55,0.15-1.08,0.31-1.56,0.48C92.98,31.91,94.64,36.33,95.54,41.09L95.54,41.09z M88.55,25.19
		c0.81-0.32,1.74-0.63,2.69-0.88c1.46-0.39,3.02-0.69,4.37-0.76c0.26-0.01,0.52-0.02,0.76-0.01l-0.09-0.1
		c-0.82-0.88-1.95-1.37-3.37-1.23h-0.01c-1.46,0.14-3.1,0.47-4.62,0.89c-0.41,0.11-0.81,0.23-1.2,0.36
		C87.6,24.01,88.09,24.59,88.55,25.19L88.55,25.19z M29.06,23.5c-0.43-0.14-0.89-0.28-1.36-0.41c-1.52-0.42-3.16-0.75-4.62-0.89
		h-0.01c-1.42-0.14-2.55,0.36-3.37,1.23l-0.09,0.1c0.24-0.01,0.5,0,0.76,0.01c1.35,0.07,2.91,0.37,4.37,0.76
		c1.01,0.27,2,0.6,2.85,0.95C28.06,24.65,28.55,24.07,29.06,23.5L29.06,23.5z M25.61,28.08c-0.54-0.19-1.12-0.37-1.74-0.53
		c-1.27-0.34-2.59-0.6-3.68-0.66c-1.05-0.06-1.67,0.09-1.98,0.41c-0.32,0.32-0.46,0.94-0.5,1.79c-0.12,2.34,0.48,5.55,1.42,8.54
		c0.43,1.36,0.93,2.66,1.46,3.8C21.47,36.56,23.14,32.04,25.61,28.08L25.61,28.08z M96.23,46.47c0.08,1.1,0.11,2.22,0.11,3.35v25.36
		c0,6.4,0.31,12.19,1.06,17.71c0.61,4.52,1.51,9.54,2.77,14.15c5.59-8.16,8.85-18.03,8.85-28.67c0-12.54-4.54-24.02-12.07-32.89
		C96.71,45.85,96.47,46.18,96.23,46.47L96.23,46.47z M19.2,45.73C11.8,54.57,7.34,65.95,7.34,78.38c0,10.57,3.22,20.38,8.74,28.51
		c1.25-4.62,2.15-9.7,2.76-14.24c0.72-5.44,1.03-11.15,1.03-17.45V49.82c0-1.05,0.03-2.09,0.1-3.13
		C19.7,46.41,19.45,46.09,19.2,45.73z"/>
</g>
<path class="st1" d="M168.99,70.65c-4.14,0-7.39-3.09-7.39-7.81c0-4.73,3.24-7.81,7.39-7.81c4.14,0,7.38,3.09,7.38,7.81
	C176.37,67.56,173.13,70.65,168.99,70.65L168.99,70.65z M194.32,76.51h7.74V55.29h8.36v-6.13h-24.5v6.13h8.4V76.51L194.32,76.51z
	 M222.49,76.51h7.74V55.29h8.36v-6.13h-24.5v6.13h8.4V76.51L222.49,76.51z M249.92,70.53v-5h13.49v-5.78h-13.49v-4.61h13.49v-5.98
	h-21.14v27.35h21.14v-5.98H249.92L249.92,70.53z M285.83,59.28c0,2.5-1.6,3.99-4.81,3.99h-4.3v-8.01h4.3
	C284.22,55.26,285.83,56.74,285.83,59.28L285.83,59.28z M285.9,76.51h8.28l-5.9-8.6c3.4-1.64,5.35-4.61,5.35-8.63
	c0-6.25-4.69-10.12-12.15-10.12h-12.5v27.35h7.74v-7.27h4.22L285.9,76.51L285.9,76.51z M168.99,77.06c8.75,0,15.2-6.02,15.2-14.22
	c0-8.21-6.45-14.22-15.2-14.22c-8.75,0-15.2,6.02-15.2,14.22C153.79,71.04,160.24,77.06,168.99,77.06z"/>
<path class="st1" d="M309.26,76.9c7.5,0,11.06-3.75,11.06-8.13c0-10.04-16.22-6.25-16.22-12.07c0-2.07,1.72-3.71,5.94-3.71
	c2.38,0,5.08,0.7,7.54,2.15l1.6-3.95c-2.38-1.56-5.82-2.42-9.1-2.42c-7.5,0-11.02,3.75-11.02,8.17c0,10.16,16.25,6.29,16.25,12.19
	c0,2.03-1.8,3.55-6.06,3.55c-3.36,0-6.84-1.25-9.02-3.01l-1.76,3.95C300.75,75.57,305,76.9,309.26,76.9L309.26,76.9z M336.81,64.32
	h-5.94V53.46h5.94c4.45,0,6.76,1.99,6.76,5.43C343.57,62.33,341.26,64.32,336.81,64.32L336.81,64.32z M337.04,49.16h-11.25v27.35
	h5.08v-7.89h6.17c7.19,0,11.64-3.71,11.64-9.73C348.69,52.83,344.23,49.16,337.04,49.16L337.04,49.16z M353.8,76.51h19.38v-4.3
	h-14.3V49.16h-5.08V76.51L353.8,76.51z M382.77,65.22v-4.34c0-5.2,2.77-7.66,7.11-7.66c4.34,0,7.11,2.46,7.11,7.66v4.34H382.77
	L382.77,65.22z M389.92,48.77c-7.27,0-12.15,4.38-12.15,12.58v15.16h5v-7.03h14.22v7.03h5.08V61.35
	C402.07,53.15,397.19,48.77,389.92,48.77L389.92,48.77z M418.69,76.9c7.5,0,11.06-3.75,11.06-8.13c0-10.04-16.21-6.25-16.21-12.07
	c0-2.07,1.72-3.71,5.94-3.71c2.38,0,5.08,0.7,7.54,2.15l1.6-3.95c-2.38-1.56-5.82-2.42-9.1-2.42c-7.5,0-11.02,3.75-11.02,8.17
	c0,10.16,16.25,6.29,16.25,12.19c0,2.03-1.8,3.55-6.06,3.55c-3.36,0-6.84-1.25-9.02-3.01l-1.76,3.95
	C410.17,75.57,414.43,76.9,418.69,76.9L418.69,76.9z M454.05,49.16v11.29h-14.14V49.16h-5.08v27.35h5.08V64.79h14.14v11.72h5.08
	V49.16H454.05L454.05,49.16z M334.05,98.28c1.09,0,1.83-0.17,2.22-0.51c0.39-0.34,0.59-0.88,0.59-1.63c0-0.75-0.2-1.26-0.61-1.54
	c-0.4-0.28-1.12-0.42-2.16-0.42h-2.45v4.09H334.05L334.05,98.28z M338.84,96.15c0,1.89-0.82,3.08-2.47,3.57l2.99,4.15h-2.45
	l-2.73-3.84h-2.54v3.84h-1.93V92.44h4.25c1.75,0,2.99,0.29,3.75,0.88C338.46,93.91,338.84,94.86,338.84,96.15L338.84,96.15z
	 M319.41,99.49l-2.08-4.71l-2.08,4.71H319.41L319.41,99.49z M314.47,101.27l-1.14,2.6h-2.06l5.04-11.43h2.06l5.04,11.43h-2.06
	l-1.14-2.6H314.47L314.47,101.27z M305.46,92.44v1.82h-6.1v3.03h5.48V99h-5.48v3.06h6.3v1.82h-8.23V92.44H305.46L305.46,92.44z
	 M288.23,97.91h1.93v4.31c-1.08,1.19-2.62,1.78-4.63,1.78c-1.69,0-3.11-0.56-4.24-1.67c-1.14-1.11-1.71-2.52-1.71-4.22
	c0-1.7,0.58-3.12,1.74-4.25c1.16-1.13,2.57-1.7,4.21-1.7c1.65,0,3.01,0.48,4.11,1.44l-1.03,1.47c-0.45-0.38-0.9-0.64-1.35-0.79
	c-0.45-0.15-0.98-0.22-1.58-0.22c-1.16,0-2.13,0.37-2.91,1.12c-0.78,0.75-1.18,1.73-1.18,2.94s0.38,2.19,1.14,2.93
	c0.76,0.74,1.69,1.1,2.77,1.1c1.09,0,1.99-0.24,2.72-0.7V97.91L288.23,97.91z M261.6,97.91h1.93v4.31
	c-1.08,1.19-2.62,1.78-4.63,1.78c-1.69,0-3.11-0.56-4.25-1.67c-1.14-1.11-1.71-2.52-1.71-4.22c0-1.7,0.58-3.12,1.74-4.25
	c1.16-1.13,2.56-1.7,4.21-1.7c1.65,0,3.01,0.48,4.1,1.44l-1.03,1.47c-0.45-0.38-0.9-0.64-1.35-0.79c-0.45-0.15-0.98-0.22-1.58-0.22
	c-1.16,0-2.13,0.37-2.91,1.12c-0.79,0.75-1.18,1.73-1.18,2.94s0.38,2.19,1.15,2.93c0.76,0.74,1.69,1.1,2.77,1.1
	c1.09,0,1.99-0.24,2.72-0.7V97.91L261.6,97.91z M243.86,92.44h1.93v11.43h-2.09l-6.48-8.34v8.34h-1.93V92.44h1.93l6.64,8.54V92.44
	L243.86,92.44z M225.46,92.44h1.93v11.43h-1.93V92.44L225.46,92.44z M213.71,98.77c1.07,0,1.8-0.2,2.18-0.61
	c0.39-0.41,0.58-1.01,0.58-1.8c0-0.79-0.25-1.35-0.74-1.68c-0.49-0.33-1.26-0.49-2.31-0.49h-1.96v4.58H213.71L213.71,98.77z
	 M213.47,92.44c1.73,0,3,0.33,3.79,1c0.8,0.67,1.19,1.69,1.19,3.07c0,1.39-0.41,2.4-1.22,3.04c-0.81,0.64-2.06,0.97-3.74,0.97h-2.03
	v3.35h-1.93V92.44H213.47L213.47,92.44z M190.67,103.87h-1.93V92.44h3.01l3.45,7.18l3.45-7.18h2.99v11.43h-1.93v-8.93l-3.99,7.93
	h-1.08l-3.97-7.93V103.87L190.67,103.87z M178.43,99.49l-2.08-4.71l-2.08,4.71H178.43L178.43,99.49z M173.49,101.27l-1.15,2.6h-2.06
	l5.04-11.43h2.06l5.04,11.43h-2.06l-1.14-2.6H173.49L173.49,101.27z M160.32,102.12c0.67,0,1.24-0.11,1.72-0.34
	c0.48-0.22,0.98-0.58,1.5-1.07l1.24,1.28c-1.21,1.34-2.68,2.01-4.41,2.01c-1.73,0-3.16-0.56-4.3-1.67
	c-1.14-1.11-1.71-2.52-1.71-4.22c0-1.7,0.58-3.12,1.74-4.25c1.16-1.13,2.63-1.7,4.4-1.7c1.77,0,3.25,0.65,4.44,1.96l-1.23,1.34
	c-0.55-0.52-1.06-0.89-1.54-1.1c-0.49-0.21-1.06-0.31-1.71-0.31c-1.16,0-2.13,0.37-2.91,1.12c-0.79,0.75-1.18,1.7-1.18,2.86
	c0,1.16,0.39,2.13,1.17,2.91C158.33,101.73,159.26,102.12,160.32,102.12z"/>
</svg>
